<svg width="24" height="24" viewBox="0 0 24 24" fill="none" xmlns="http://www.w3.org/2000/svg">
<path d="M17.9206 0H5.97353C2.67444 0 0 2.67444 0 5.97353V17.9206C0 21.2197 2.67444 23.8941 5.97353 23.8941H17.9206C21.2197 23.8941 23.8941 21.2197 23.8941 17.9206V5.97353C23.8941 2.67444 21.2197 0 17.9206 0Z" fill="white"/>
<path d="M16.7258 11.1946C16.8732 12.1888 16.7034 13.2043 16.2405 14.0965C15.7775 14.9887 15.045 15.7122 14.1472 16.1641C13.2493 16.616 12.2318 16.7733 11.2394 16.6137C10.2471 16.454 9.33028 15.9854 8.61952 15.2747C7.90877 14.5639 7.44022 13.6471 7.28053 12.6547C7.12084 11.6623 7.27814 10.6449 7.73005 9.74701C8.18196 8.84917 8.90547 8.11668 9.79768 7.65373C10.6899 7.19079 11.7053 7.02095 12.6996 7.16839C13.7138 7.31879 14.6528 7.79139 15.3778 8.51639C16.1028 9.24139 16.5754 10.1803 16.7258 11.1946Z" stroke="#8B1315" stroke-width="2" stroke-linecap="round" stroke-linejoin="round"/>
<path d="M18.5179 5.37616H18.5301" stroke="#8B1315" stroke-width="3" stroke-linecap="round" stroke-linejoin="round"/>
</svg>
